<svg width="52" height="52" viewBox="0 0 52 52" fill="none" xmlns="http://www.w3.org/2000/svg">
<g filter="url(#filter0_d_13_2772)">
<rect x="4" width="44" height="43.0459" rx="21.5229" fill="#F6F6F6"/>
<rect x="4.5" y="0.5" width="43" height="42.0459" rx="21.0229" stroke="#BCBBCC"/>
<path d="M37.0342 30.0459H14.9658C14.4324 30.0459 14 29.6135 14 29.0801V13.9658C14 13.4324 14.4324 13 14.9658 13H37.0342C37.5676 13 38 13.4324 38 13.9658V29.08C38 29.6135 37.5676 30.0459 37.0342 30.0459Z" fill="#26235B"/>
<path d="M37.0343 13.0002H36.5197C36.5397 13.0775 36.5514 13.1582 36.5514 13.2417V19.0767C36.5514 24.7349 31.9646 29.3217 26.3064 29.3217H14.0317C14.1391 29.738 14.516 30.0461 14.9659 30.0461H37.0343C37.5677 30.0461 38.0001 29.6136 38.0001 29.0802V13.966C38.0001 13.4326 37.5677 13.0002 37.0343 13.0002Z" fill="#0055A3"/>
<path d="M26.9199 27.351C23.696 27.351 21.0732 24.7365 21.0732 21.523C21.0732 18.3094 23.696 15.6949 26.9199 15.6949C28.0914 15.6949 29.2219 16.0392 30.1894 16.6907C30.59 16.9605 30.6954 17.5031 30.4248 17.9024C30.1541 18.3018 29.6099 18.4069 29.2092 18.137C28.5323 17.6812 27.7407 17.4403 26.9199 17.4403C24.6616 17.4403 22.8243 19.2718 22.8243 21.5229C22.8243 23.774 24.6616 25.6055 26.9199 25.6055C27.7736 25.6055 28.4957 25.3488 29.0659 24.8426C29.1768 24.7441 29.2827 24.6351 29.3809 24.5185C29.6916 24.1492 30.2438 24.1009 30.6143 24.4107C30.9847 24.7205 31.0331 25.2709 30.7224 25.6402C30.5699 25.8214 30.4044 25.9916 30.2304 26.1461C29.3426 26.9344 28.1978 27.351 26.9199 27.351Z" fill="#F6F6F6"/>
<path d="M18.8562 18.2028H14V15.6949H18.8562C19.123 15.6949 19.3392 15.9111 19.3392 16.1779V17.7199C19.3392 17.9866 19.123 18.2028 18.8562 18.2028Z" fill="#FFB606"/>
<path d="M18.8562 27.351H14V24.8431H18.8562C19.123 24.8431 19.3392 25.0593 19.3392 25.326V26.8681C19.3392 27.1348 19.123 27.351 18.8562 27.351Z" fill="#FFB606"/>
<path d="M18.8562 22.6812H14V20.1733H18.8562C19.123 20.1733 19.3392 20.3895 19.3392 20.6562V22.1983C19.3392 22.465 19.123 22.6812 18.8562 22.6812Z" fill="#FFB606"/>
<path d="M33.1436 18.2028H37.9998V15.6949H33.1436C32.8768 15.6949 32.6606 15.9111 32.6606 16.1779V17.7199C32.6606 17.9866 32.8768 18.2028 33.1436 18.2028Z" fill="#FFB606"/>
<path d="M36.5513 15.6949H37.9999V18.2028H36.5513V15.6949Z" fill="#FFB606"/>
<path d="M33.1436 27.351H37.9998V24.8431H33.1436C32.8768 24.8431 32.6606 25.0593 32.6606 25.326V26.8681C32.6606 27.1348 32.8768 27.351 33.1436 27.351Z" fill="#FFB606"/>
<path d="M32.7075 27.0749C32.7851 27.238 32.9508 27.351 33.1434 27.351H37.9997V24.8431H34.7746C34.1996 25.686 33.502 26.4383 32.7075 27.0749Z" fill="#FFB606"/>
<path d="M33.1436 22.6812H37.9998V20.1733H33.1436C32.8768 20.1733 32.6606 20.3895 32.6606 20.6562V22.1983C32.6606 22.465 32.8768 22.6812 33.1436 22.6812Z" fill="#FFB606"/>
<path d="M35.8984 22.6812H38V20.1733H36.4928C36.3998 21.0469 36.1969 21.8874 35.8984 22.6812Z" fill="#FFB606"/>
</g>
<defs>
<filter id="filter0_d_13_2772" x="0" y="0" width="52" height="51.0459" filterUnits="userSpaceOnUse" color-interpolation-filters="sRGB">
<feFlood flood-opacity="0" result="BackgroundImageFix"/>
<feColorMatrix in="SourceAlpha" type="matrix" values="0 0 0 0 0 0 0 0 0 0 0 0 0 0 0 0 0 0 127 0" result="hardAlpha"/>
<feOffset dy="4"/>
<feGaussianBlur stdDeviation="2"/>
<feComposite in2="hardAlpha" operator="out"/>
<feColorMatrix type="matrix" values="0 0 0 0 0 0 0 0 0 0 0 0 0 0 0 0 0 0 0.25 0"/>
<feBlend mode="normal" in2="BackgroundImageFix" result="effect1_dropShadow_13_2772"/>
<feBlend mode="normal" in="SourceGraphic" in2="effect1_dropShadow_13_2772" result="shape"/>
</filter>
</defs>
</svg>
